<svg width="76" height="14" fill="none" xmlns="http://www.w3.org/2000/svg"><path d="M6.255 6.792c0-1.246-.962-2.123-2.134-2.123-1.18 0-2.133.895-2.133 2.123 0 1.218.961 2.122 2.133 2.122 1.172.01 2.134-.868 2.134-2.122Zm.018 3.717V9.54c-.586.672-1.447 1.084-2.481 1.084-2.152 0-3.79-1.63-3.79-3.833 0-2.186 1.693-3.843 3.836-3.843 1.007 0 1.858.412 2.435 1.066v-.932h1.932v7.426H6.273ZM17.598 8.86c-.678 0-.86-.241-.86-.86V4.705h1.244v-1.62h-1.245v-1.81H14.76v1.81h-2.554v-.449c0-.627.247-.86.943-.86h.43V.325h-.952c-1.639 0-2.408.5-2.408 2.05v.708H9.119v1.621h1.099v5.805h1.978V4.704h2.554v3.637c0 1.514.614 2.168 2.216 2.168h1.026V8.86h-.394ZM24.7 6.129c-.137-.968-.97-1.541-1.95-1.541-.97 0-1.776.564-1.978 1.54H24.7Zm-3.946 1.155c.146 1.102.97 1.72 2.033 1.72.833 0 1.474-.376 1.858-.967h2.033c-.476 1.576-1.969 2.588-3.928 2.588-2.372 0-4.038-1.576-4.038-3.816 0-2.239 1.758-3.86 4.084-3.86 2.344 0 4.038 1.63 4.038 3.86a2.7 2.7 0 0 1-.046.475h-6.034ZM39.434 6.792c0-1.2-.962-2.123-2.133-2.123-1.182 0-2.134.895-2.134 2.123 0 1.218.962 2.122 2.133 2.122a2.103 2.103 0 0 0 2.134-2.122Zm-6.226-3.709h1.932v.968c.586-.681 1.446-1.102 2.481-1.102 2.124 0 3.79 1.648 3.79 3.834 0 2.185-1.693 3.851-3.836 3.851-.989 0-1.804-.376-2.371-.994v3.932h-1.996V3.083ZM48.376 6.792c0-1.246-.962-2.123-2.133-2.123-1.182 0-2.134.895-2.134 2.123 0 1.218.962 2.122 2.133 2.122 1.172.01 2.134-.868 2.134-2.122Zm.018 3.717V9.54c-.586.672-1.447 1.084-2.481 1.084-2.152 0-3.79-1.63-3.79-3.833 0-2.186 1.693-3.843 3.836-3.843 1.007 0 1.858.412 2.435 1.066v-.932h1.932v7.426h-1.932ZM29.711 3.809s.495-.86 1.694-.86c.513 0 .852.17.852.17v1.899s-.724-.421-1.392-.34c-.668.09-1.09.662-1.09 1.442v4.398H27.78V3.083h1.932v.726ZM59.356 3.083l-4.88 10.462h-2.06l1.913-4.04-3.242-6.413h2.335l1.896 4.29 1.94-4.29h2.098v-.009ZM74.936 2.913 70.092.27c-1.42-.77-3.196.197-3.196 1.747v.269c0 .242.138.475.367.591l.915.502c.266.143.605-.036.605-.332v-.672c0-.34.384-.546.695-.376l4.194 2.284a.42.42 0 0 1 0 .753L69.478 7.32c-.31.17-.695-.045-.695-.376v-.359c0-1.55-1.777-2.517-3.196-1.746L60.752 7.48a1.958 1.958 0 0 0 0 3.485l4.835 2.642c1.42.77 3.195-.197 3.195-1.747v-.268a.678.678 0 0 0-.366-.592l-.915-.501c-.266-.143-.605.036-.605.331v.672c0 .34-.384.546-.695.376l-4.194-2.284a.427.427 0 0 1 0-.761L66.2 6.559c.31-.17.695.044.695.376v.358c0 1.55 1.777 2.517 3.196 1.747l4.834-2.643c1.429-.77 1.429-2.705.01-3.484Z" fill="#000"/></svg>