<svg width="100" height="19" fill="none" xmlns="http://www.w3.org/2000/svg"><path d="M8.229 8.936c0-1.638-1.265-2.793-2.807-2.793-1.554 0-2.808 1.179-2.808 2.793 0 1.603 1.266 2.794 2.808 2.794 1.542.012 2.807-1.144 2.807-2.794Zm.024 4.892v-1.273c-.771.884-1.904 1.426-3.265 1.426C2.157 13.981 0 11.836 0 8.936 0 6.06 2.229 3.88 5.048 3.88c1.326 0 2.446.542 3.205 1.402V4.057h2.542v9.77H8.253ZM23.151 11.659c-.891 0-1.132-.318-1.132-1.132V6.19h1.638V4.057H22.02V1.676h-2.603v2.38h-3.361v-.589c0-.825.325-1.131 1.24-1.131h.567V.426H16.61c-2.157 0-3.169.66-3.169 2.7v.93h-1.445V6.19h1.445v7.638h2.603V6.19h3.361v4.785c0 1.992.808 2.853 2.916 2.853h1.35v-2.169h-.519ZM32.503 8.064c-.18-1.273-1.277-2.027-2.566-2.027-1.277 0-2.338.742-2.603 2.027h5.169Zm-5.193 1.52c.193 1.45 1.277 2.264 2.675 2.264 1.096 0 1.94-.495 2.446-1.273h2.674c-.626 2.074-2.59 3.406-5.168 3.406-3.12 0-5.314-2.074-5.314-5.021s2.314-5.08 5.374-5.08c3.084 0 5.313 2.145 5.313 5.08 0 .212-.024.424-.06.625h-7.94ZM51.883 8.936c0-1.579-1.265-2.793-2.807-2.793-1.554 0-2.807 1.179-2.807 2.793 0 1.603 1.265 2.794 2.807 2.794a2.768 2.768 0 0 0 2.807-2.794Zm-8.192-4.88h2.542V5.33c.771-.896 1.904-1.45 3.265-1.45 2.795 0 4.988 2.169 4.988 5.045 0 2.875-2.229 5.068-5.048 5.068-1.302 0-2.374-.495-3.12-1.309v5.175H43.69V4.057ZM63.652 8.936c0-1.638-1.265-2.793-2.807-2.793-1.554 0-2.807 1.179-2.807 2.793 0 1.603 1.265 2.794 2.807 2.794 1.542.012 2.807-1.144 2.807-2.794Zm.024 4.892v-1.273c-.77.884-1.903 1.426-3.265 1.426-2.831 0-4.988-2.145-4.988-5.045 0-2.876 2.23-5.056 5.049-5.056 1.325 0 2.445.542 3.204 1.402V4.057h2.543v9.77h-2.543ZM39.096 5.011s.65-1.131 2.229-1.131c.674 0 1.12.224 1.12.224v2.499s-.952-.554-1.831-.448c-.88.118-1.434.872-1.434 1.897v5.788h-2.626V4.057h2.542v.954ZM78.1 4.057l-6.422 13.766h-2.71l2.517-5.315-4.265-8.44h3.073l2.494 5.646 2.554-5.646H78.1v-.011ZM98.603 3.833 92.229.356c-1.867-1.014-4.205.259-4.205 2.298v.354c0 .318.181.624.482.778l1.205.66c.35.188.795-.047.795-.436v-.884c0-.448.506-.72.916-.495l5.518 3.005c.41.224.41.778 0 .99l-5.518 3.006c-.41.224-.916-.06-.916-.495v-.472c0-2.039-2.337-3.312-4.204-2.298L79.94 9.844c-1.867 1.014-1.867 3.571 0 4.585l6.362 3.477c1.867 1.014 4.204-.26 4.204-2.298v-.354a.892.892 0 0 0-.482-.778l-1.204-.66c-.35-.189-.796.047-.796.436v.884c0 .448-.506.72-.915.495l-5.518-3.005a.562.562 0 0 1 0-1.002l5.518-2.994c.41-.224.915.059.915.495v.471c0 2.04 2.338 3.313 4.205 2.299l6.362-3.477c1.879-1.014 1.879-3.56.012-4.585Z" fill="#000"/></svg>